<svg xmlns="http://www.w3.org/2000/svg" viewBox="0 0 174.21 44.67"><defs><style>.cls-1{fill:#bdc3c7;}.cls-2{fill:#ecf0f1;}.cls-3{fill:#d25627;}</style></defs><title>logo-trends</title><g id="Score-Details"><path class="cls-1" d="M20.5,34a9,9,0,0,1-4.43,1.14c-3.2,0-5.5-1.81-5.5-5.26V22.54H8.26V19.06h2.31V14.45h5.29V19h4.34v3.51H15.86V29c0,1.29.55,1.85,1.54,1.81a5.75,5.75,0,0,0,2.06-.55Z"/><path class="cls-1" d="M28.5,21.09a6.05,6.05,0,0,1,5.38-3v4.8c-3.07-.28-5.1,1.17-5.38,3.51v8.52H23.18V18.3H28.5Z"/><path class="cls-1" d="M51.93,28H40.27a3.83,3.83,0,0,0,3.91,3.08,5.6,5.6,0,0,0,4-1.69l2.8,2.74a9.53,9.53,0,0,1-7.23,2.92c-5.41,0-8.8-3.38-8.8-8.43s3.51-8.52,8.64-8.52C49.41,18.11,52.3,22,51.93,28Zm-5.1-2.86a3.09,3.09,0,0,0-3.2-3.35c-1.85,0-3.11,1.35-3.45,3.35Z"/><path class="cls-1" d="M71.73,24.42V34.87H66.44v-9a2.82,2.82,0,0,0-2.92-3.14,3.39,3.39,0,0,0-3.38,3.35v8.77H54.82V18.3h5.32V21a6.16,6.16,0,0,1,5.54-3C69.33,18,71.73,20.54,71.73,24.42Z"/><path class="cls-1" d="M92.21,34.87H86.89V32.69a6,6,0,0,1-5,2.4c-4.67,0-7.75-3.44-7.75-8.58s3-8.43,7.63-8.43a6.15,6.15,0,0,1,5.11,2.4V12.05h5.32Zm-5.32-8.24c0-2.55-1.48-4.31-3.69-4.31s-3.69,1.75-3.72,4.31S81,31,83.2,31,86.89,29.18,86.89,26.63Z"/><path class="cls-1" d="M109.37,19.93l-1.81,3.44a11.93,11.93,0,0,0-5.23-1.66c-1,0-1.63.37-1.63,1.14,0,2.28,8.73,1.17,8.7,7,0,3.41-3,5.29-7,5.29A12.26,12.26,0,0,1,95,32.75l1.69-3.38a10.64,10.64,0,0,0,5.88,2.06c1,0,1.81-.37,1.81-1.14,0-2.43-8.58-1.17-8.55-7,0-3.41,2.89-5.26,6.74-5.26A13.56,13.56,0,0,1,109.37,19.93Z"/><rect class="cls-2" x="119.79" y="30.62" width="42.42" height="3.6"/><path class="cls-3" d="M125.05,34.22h-5.26a1.8,1.8,0,1,1,0-3.6h4.74L130.32,27a1.8,1.8,0,0,1,.87-.27l11.66-.55,9.24-9.28a1.81,1.81,0,0,1,.49-.35l8.85-4.31A1.8,1.8,0,1,1,163,15.47l-8.57,4.17-9.52,9.56a1.8,1.8,0,0,1-1.19.53l-11.88.56L126,33.95A1.8,1.8,0,0,1,125.05,34.22Z"/></g></svg>